<?xml version="1.0" encoding="UTF-8" standalone="no"?>
<!-- Generator: Adobe Illustrator 19.0.0, SVG Export Plug-In . SVG Version: 6.00 Build 0)  -->

<svg
   xmlns:dc="http://purl.org/dc/elements/1.1/"
   xmlns:cc="http://creativecommons.org/ns#"
   xmlns:rdf="http://www.w3.org/1999/02/22-rdf-syntax-ns#"
   xmlns:svg="http://www.w3.org/2000/svg"
   xmlns="http://www.w3.org/2000/svg"
   xmlns:xlink="http://www.w3.org/1999/xlink"
   xmlns:sodipodi="http://sodipodi.sourceforge.net/DTD/sodipodi-0.dtd"
   xmlns:inkscape="http://www.inkscape.org/namespaces/inkscape"
   version="1.1"
   id="Layer_1"
   x="0px"
   y="0px"
   viewBox="0 0 204.5 51.7"
   style="enable-background:new 0 0 204.5 51.7;"
   xml:space="preserve"
   sodipodi:docname="logo.svg"
   inkscape:version="0.92.2 (5c3e80d, 2017-08-06)"><metadata
     id="metadata1157"><rdf:RDF><cc:Work
         rdf:about=""><dc:format>image/svg+xml</dc:format><dc:type
           rdf:resource="http://purl.org/dc/dcmitype/StillImage" /><dc:title></dc:title></cc:Work></rdf:RDF></metadata><defs
     id="defs1155"><linearGradient
       gradientTransform="matrix(0.85506048,0,0,0.85506048,94.033376,6.6811078)"
       id="XMLID_18_-7"
       gradientUnits="userSpaceOnUse"
       x1="113.8142"
       y1="-3.1459"
       x2="113.8142"
       y2="48.295601"><stop
         offset="0"
         style="stop-color:#E91C37"
         id="stop1050-7" /><stop
         offset="5.948329e-002"
         style="stop-color:#DF2945"
         id="stop1052-9" /><stop
         offset="0.1861"
         style="stop-color:#CB3A5D"
         id="stop1054-3" /><stop
         offset="0.316"
         style="stop-color:#BA4571"
         id="stop1056-6" /><stop
         offset="0.4471"
         style="stop-color:#AB4C82"
         id="stop1058-2" /><stop
         offset="0.5796"
         style="stop-color:#9F508F"
         id="stop1060-8" /><stop
         offset="0.7144"
         style="stop-color:#965399"
         id="stop1062-9" /><stop
         offset="0.8528"
         style="stop-color:#90559F"
         id="stop1064-0" /><stop
         offset="1"
         style="stop-color:#8E55A2"
         id="stop1066-4" /></linearGradient><linearGradient
       gradientTransform="matrix(0.85506048,0,0,0.85506048,92.320414,6.5852972)"
       inkscape:collect="always"
       xlink:href="#XMLID_17_-7"
       id="linearGradient4912-6"
       gradientUnits="userSpaceOnUse"
       x1="78.420403"
       y1="-3.1459"
       x2="78.420403"
       y2="48.295601" /><linearGradient
       id="XMLID_17_-7"
       gradientUnits="userSpaceOnUse"
       x1="78.420403"
       y1="-3.1459"
       x2="78.420403"
       y2="48.295601"><stop
         offset="0"
         style="stop-color:#E91C37"
         id="stop1030-2" /><stop
         offset="5.948329e-002"
         style="stop-color:#DF2945"
         id="stop1032-3" /><stop
         offset="0.1861"
         style="stop-color:#CB3A5D"
         id="stop1034-6" /><stop
         offset="0.316"
         style="stop-color:#BA4571"
         id="stop1036-2" /><stop
         offset="0.4471"
         style="stop-color:#AB4C82"
         id="stop1038-9" /><stop
         offset="0.5796"
         style="stop-color:#9F508F"
         id="stop1040-5" /><stop
         offset="0.7144"
         style="stop-color:#965399"
         id="stop1042-0" /><stop
         offset="0.8528"
         style="stop-color:#90559F"
         id="stop1044-9" /><stop
         offset="1"
         style="stop-color:#8E55A2"
         id="stop1046-5" /></linearGradient></defs><sodipodi:namedview
     pagecolor="#ffffff"
     bordercolor="#666666"
     borderopacity="1"
     objecttolerance="10"
     gridtolerance="10"
     guidetolerance="10"
     inkscape:pageopacity="0"
     inkscape:pageshadow="2"
     inkscape:window-width="1920"
     inkscape:window-height="1001"
     id="namedview1153"
     showgrid="false"
     inkscape:zoom="2.4342454"
     inkscape:cx="138.66609"
     inkscape:cy="73.255851"
     inkscape:window-x="-9"
     inkscape:window-y="-9"
     inkscape:window-maximized="1"
     inkscape:current-layer="XMLID_80_" /><style
     type="text/css"
     id="style987">
	.st0{fill:url(#XMLID_15_);}
	.st1{fill:url(#XMLID_16_);}
	.st2{fill:url(#XMLID_17_);}
	.st3{fill:url(#XMLID_18_);}
	.st4{fill:url(#XMLID_19_);}
	.st5{fill:url(#XMLID_20_);}
	.st6{fill:url(#XMLID_21_);}
	.st7{fill:url(#XMLID_22_);}
</style><g
     id="XMLID_79_"
     transform="translate(-1.2324148,0.6162074)"><g
       id="XMLID_95_"
       transform="matrix(0.85506048,0,0,0.85506048,2.0333807,6.6811079)"><linearGradient
         id="XMLID_15_"
         gradientUnits="userSpaceOnUse"
         x1="23.678101"
         y1="-3.1459"
         x2="23.678101"
         y2="48.295601"><stop
           offset="0"
           style="stop-color:#E91C37"
           id="stop989" /><stop
           offset="5.948329e-002"
           style="stop-color:#DF2945"
           id="stop991" /><stop
           offset="0.1861"
           style="stop-color:#CB3A5D"
           id="stop993" /><stop
           offset="0.316"
           style="stop-color:#BA4571"
           id="stop995" /><stop
           offset="0.4471"
           style="stop-color:#AB4C82"
           id="stop997" /><stop
           offset="0.5796"
           style="stop-color:#9F508F"
           id="stop999" /><stop
           offset="0.7144"
           style="stop-color:#965399"
           id="stop1001" /><stop
           offset="0.8528"
           style="stop-color:#90559F"
           id="stop1003" /><stop
           offset="1"
           style="stop-color:#8E55A2"
           id="stop1005" /></linearGradient><path
         id="XMLID_99_"
         class="st0"
         d="m 43.5,31.2 c 0,0 0,0 0,0 v 0 c 2.4,-3.7 3.9,-8.2 3.9,-13 0,-1.3 -0.1,-2.6 -0.3,-3.8 -0.3,-2.7 -2.3,-4 -3.8,-4 -2.1,0 -4,1.7 -3.5,5.4 0,0 0,0 0,0 0.1,0.8 0.2,1.7 0.2,2.5 -0.1,9 -7.6,16.3 -16.6,16.1 -8.8,-0.2 -16,-7.4 -16,-16.3 0,-4.2 1.6,-8.1 4.3,-11 0,0 0,0 0,0 0,0 2.1,-2 2.1,-3.4 C 13.8,1.7 12.1,0 10,0 9.1,0 8,0.4 7.1,1.3 c 0,0 0,0 0,0 C 2.7,5.6 0,11.6 0,18.1 0,31 10.2,41.5 22.9,41.9 c 0,0 1.3,0 1.3,0 12.3,0.1 16.7,6.2 16.7,6.2 -2.2,-8.3 1,-14.4 2.2,-16.3 0.1,-0.2 0.3,-0.4 0.4,-0.6 z"
         style="fill:url(#XMLID_15_)"
         inkscape:connector-curvature="0" /><linearGradient
         id="XMLID_16_"
         gradientUnits="userSpaceOnUse"
         x1="23.678101"
         y1="-3.1459"
         x2="23.678101"
         y2="48.295601"><stop
           offset="0"
           style="stop-color:#E91C37"
           id="stop1009" /><stop
           offset="5.948329e-002"
           style="stop-color:#DF2945"
           id="stop1011" /><stop
           offset="0.1861"
           style="stop-color:#CB3A5D"
           id="stop1013" /><stop
           offset="0.316"
           style="stop-color:#BA4571"
           id="stop1015" /><stop
           offset="0.4471"
           style="stop-color:#AB4C82"
           id="stop1017" /><stop
           offset="0.5796"
           style="stop-color:#9F508F"
           id="stop1019" /><stop
           offset="0.7144"
           style="stop-color:#965399"
           id="stop1021" /><stop
           offset="0.8528"
           style="stop-color:#90559F"
           id="stop1023" /><stop
           offset="1"
           style="stop-color:#8E55A2"
           id="stop1025" /></linearGradient><path
         id="XMLID_96_"
         class="st1"
         d="m 23.7,8.5 c -5.3,0 -9.6,4.3 -9.6,9.6 0,5.3 4.3,9.6 9.6,9.6 5.3,0 9.6,-4.3 9.6,-9.6 0,-5.3 -4.3,-9.6 -9.6,-9.6 z m 3.2,10 -4.8,3.1 c -0.2,0.1 -0.4,0 -0.4,-0.2 L 21.6,15 c 0,-0.2 0.2,-0.4 0.4,-0.2 l 4.9,3.2 c 0.2,0.1 0.2,0.4 0,0.5 z"
         style="fill:url(#XMLID_16_)"
         inkscape:connector-curvature="0" /></g><g
       id="XMLID_80_"><linearGradient
         id="XMLID_17_"
         gradientUnits="userSpaceOnUse"
         x1="78.420403"
         y1="-3.1459"
         x2="78.420403"
         y2="48.295601"
         gradientTransform="matrix(0.85506048,0,0,0.85506048,2.0333807,6.6811079)"><stop
           offset="0"
           style="stop-color:#E91C37"
           id="stop1030" /><stop
           offset="5.948329e-002"
           style="stop-color:#DF2945"
           id="stop1032" /><stop
           offset="0.1861"
           style="stop-color:#CB3A5D"
           id="stop1034" /><stop
           offset="0.316"
           style="stop-color:#BA4571"
           id="stop1036" /><stop
           offset="0.4471"
           style="stop-color:#AB4C82"
           id="stop1038" /><stop
           offset="0.5796"
           style="stop-color:#9F508F"
           id="stop1040" /><stop
           offset="0.7144"
           style="stop-color:#965399"
           id="stop1042" /><stop
           offset="0.8528"
           style="stop-color:#90559F"
           id="stop1044" /><stop
           offset="1"
           style="stop-color:#8E55A2"
           id="stop1046" /></linearGradient><path
         id="XMLID_93_"
         class="st2"
         d="m 84.204693,22.072197 c 1.026073,1.710121 1.624615,4.018784 1.624615,7.097002 v 10.773762 c 0,0.769554 -0.256518,1.368096 -0.684048,1.795627 -0.513037,0.513036 -1.111579,0.769554 -1.795627,0.769554 -0.769555,0 -1.368097,-0.256518 -1.795627,-0.769554 -0.513037,-0.513037 -0.684049,-1.111579 -0.684049,-1.795627 V 29.169199 c 0,-1.539109 -0.342024,-2.736194 -0.940566,-3.676761 -0.598543,-0.85506 -1.624615,-1.368096 -3.163724,-1.368096 -1.539109,0 -2.8217,0.513036 -3.67676,1.453603 -0.855061,0.940566 -1.368097,2.137651 -1.368097,3.591254 v 10.773762 c 0,0.769554 -0.256518,1.368096 -0.684048,1.795627 -0.513037,0.513036 -1.111579,0.769554 -1.795627,0.769554 -0.769555,0 -1.368097,-0.256518 -1.795627,-0.769554 -0.513037,-0.513037 -0.684049,-1.111579 -0.684049,-1.795627 V 29.169199 c 0,-1.539109 -0.342024,-2.736194 -0.940566,-3.676761 -0.598543,-0.85506 -1.624615,-1.368096 -3.163724,-1.368096 -1.539109,0 -2.8217,0.513036 -3.67676,1.453603 -0.855061,0.940566 -1.368097,2.137651 -1.368097,3.591254 v 10.773762 c 0,0.769554 -0.256518,1.368096 -0.684048,1.795627 -0.513036,0.513036 -1.111579,0.769554 -1.795627,0.769554 -0.769555,0 -1.368097,-0.256518 -1.795627,-0.769554 -0.513036,-0.513037 -0.684049,-1.111579 -0.684049,-1.795627 V 22.499727 c 0,-0.769555 0.256519,-1.368097 0.684049,-1.795627 0.513036,-0.513037 1.111578,-0.769555 1.795627,-0.769555 0.769554,0 1.368097,0.256518 1.795627,0.769555 0.513036,0.513036 0.684048,1.111578 0.684048,1.795627 v 0.684048 c 0.769555,-1.026072 1.710121,-1.881133 2.907206,-2.565181 1.197085,-0.684049 2.479675,-1.111579 3.933278,-1.111579 3.505748,0 5.814411,1.539109 6.754978,4.617327 0.684048,-1.197085 1.624615,-2.223158 2.907205,-3.163724 1.282591,-0.940567 2.8217,-1.453603 4.446315,-1.453603 2.650687,0 4.531821,0.855061 5.643399,2.565182 z"
         style="fill:url(#XMLID_17_);stroke-width:0.85506046"
         inkscape:connector-curvature="0" /><linearGradient
         id="XMLID_18_"
         gradientUnits="userSpaceOnUse"
         x1="113.8142"
         y1="-3.1459"
         x2="113.8142"
         y2="48.295601"
         gradientTransform="matrix(0.85506048,0,0,0.85506048,2.0333807,6.6811079)"><stop
           offset="0"
           style="stop-color:#E91C37"
           id="stop1050" /><stop
           offset="5.948329e-002"
           style="stop-color:#DF2945"
           id="stop1052" /><stop
           offset="0.1861"
           style="stop-color:#CB3A5D"
           id="stop1054" /><stop
           offset="0.316"
           style="stop-color:#BA4571"
           id="stop1056" /><stop
           offset="0.4471"
           style="stop-color:#AB4C82"
           id="stop1058" /><stop
           offset="0.5796"
           style="stop-color:#9F508F"
           id="stop1060" /><stop
           offset="0.7144"
           style="stop-color:#965399"
           id="stop1062" /><stop
           offset="0.8528"
           style="stop-color:#90559F"
           id="stop1064" /><stop
           offset="1"
           style="stop-color:#8E55A2"
           id="stop1066" /></linearGradient><path
         id="XMLID_90_"
         class="st3"
         d="m 109.25796,37.292273 c -1.02607,1.795627 -2.39417,3.163724 -4.18979,4.189796 -1.79563,1.026073 -3.67676,1.453603 -5.814412,1.453603 -2.137652,0 -4.104291,-0.513036 -5.814412,-1.453603 -1.710121,-0.940566 -3.078217,-2.394169 -4.10429,-4.189796 -1.026073,-1.795627 -1.539109,-3.762266 -1.539109,-6.070929 0,-2.223158 0.513036,-4.275303 1.539109,-6.07093 1.026073,-1.795627 2.394169,-3.163724 4.10429,-4.189796 1.710121,-1.026073 3.67676,-1.453603 5.814412,-1.453603 2.137652,0 4.018782,0.513036 5.814412,1.453603 1.79562,1.026072 3.16372,2.394169 4.18979,4.189796 1.02608,1.795627 1.53911,3.762266 1.53911,6.07093 0,2.308663 -0.51303,4.275302 -1.53911,6.070929 z m -4.3608,-9.747689 c -0.59855,-1.111579 -1.3681,-1.881133 -2.30867,-2.479676 -0.94056,-0.598542 -2.05214,-0.85506 -3.249226,-0.85506 -1.197085,0 -2.223158,0.256518 -3.24923,0.85506 -1.026073,0.598543 -1.710121,1.453603 -2.308663,2.479676 -0.598543,1.111578 -0.855061,2.308663 -0.855061,3.67676 0,1.368096 0.256518,2.565181 0.855061,3.67676 0.598542,1.026072 1.368096,1.881133 2.308663,2.479675 0.940566,0.598542 2.052145,0.855061 3.24923,0.855061 1.197086,0 2.223156,-0.256519 3.249226,-0.855061 0.94057,-0.598542 1.71012,-1.453603 2.30867,-2.479675 0.59854,-1.026073 0.85506,-2.308664 0.85506,-3.67676 0,-1.368097 -0.25652,-2.565182 -0.85506,-3.67676 z"
         style="fill:url(#XMLID_18_);stroke-width:0.85506046"
         inkscape:connector-curvature="0" /><linearGradient
         id="XMLID_19_"
         gradientUnits="userSpaceOnUse"
         x1="140.0889"
         y1="-3.1459"
         x2="140.0889"
         y2="48.295601"
         gradientTransform="matrix(0.85506048,0,0,0.85506048,2.0333807,6.6811079)"><stop
           offset="0"
           style="stop-color:#E91C37"
           id="stop1070" /><stop
           offset="5.948329e-002"
           style="stop-color:#DF2945"
           id="stop1072" /><stop
           offset="0.1861"
           style="stop-color:#CB3A5D"
           id="stop1074" /><stop
           offset="0.316"
           style="stop-color:#BA4571"
           id="stop1076" /><stop
           offset="0.4471"
           style="stop-color:#AB4C82"
           id="stop1078" /><stop
           offset="0.5796"
           style="stop-color:#9F508F"
           id="stop1080" /><stop
           offset="0.7144"
           style="stop-color:#965399"
           id="stop1082" /><stop
           offset="0.8528"
           style="stop-color:#90559F"
           id="stop1084" /><stop
           offset="1"
           style="stop-color:#8E55A2"
           id="stop1086" /></linearGradient><path
         id="XMLID_88_"
         class="st4"
         d="m 131.74605,20.618594 c 0.42754,0.42753 0.68405,0.940566 0.68405,1.624615 0,0.342024 -0.0855,0.769554 -0.34202,1.28259 l -7.95206,17.357728 c -0.17102,0.513036 -0.51304,0.855061 -0.85506,1.111579 -0.34203,0.256518 -0.76956,0.42753 -1.28259,0.42753 h -0.34203 c -0.51304,0 -0.94057,-0.171012 -1.3681,-0.42753 -0.42753,-0.256518 -0.68404,-0.684049 -0.94056,-1.197085 l -7.86656,-17.357728 c -0.17101,-0.42753 -0.25652,-0.940566 -0.25652,-1.368096 0,-0.598543 0.25652,-1.111579 0.68405,-1.539109 0.51304,-0.427531 1.02607,-0.684049 1.79563,-0.684049 0.51303,0 1.02607,0.171012 1.4536,0.427531 0.42753,0.256518 0.76956,0.684048 1.02607,1.197084 l 5.81442,13.338944 5.81441,-13.253438 c 0.25651,-0.513036 0.51303,-0.940566 0.94056,-1.197084 0.42753,-0.256519 0.85506,-0.427531 1.28259,-0.342025 0.68405,0 1.19709,0.171012 1.71012,0.598543 z"
         style="fill:url(#XMLID_19_);stroke-width:0.85506046"
         inkscape:connector-curvature="0" /><linearGradient
         id="XMLID_20_"
         gradientUnits="userSpaceOnUse"
         x1="157.293"
         y1="-3.1459"
         x2="157.293"
         y2="48.295601"
         gradientTransform="matrix(0.85506048,0,0,0.85506048,2.0333807,6.6811079)"><stop
           offset="0"
           style="stop-color:#E91C37"
           id="stop1090" /><stop
           offset="5.948329e-002"
           style="stop-color:#DF2945"
           id="stop1092" /><stop
           offset="0.1861"
           style="stop-color:#CB3A5D"
           id="stop1094" /><stop
           offset="0.316"
           style="stop-color:#BA4571"
           id="stop1096" /><stop
           offset="0.4471"
           style="stop-color:#AB4C82"
           id="stop1098" /><stop
           offset="0.5796"
           style="stop-color:#9F508F"
           id="stop1100" /><stop
           offset="0.7144"
           style="stop-color:#965399"
           id="stop1102" /><stop
           offset="0.8528"
           style="stop-color:#90559F"
           id="stop1104" /><stop
           offset="1"
           style="stop-color:#8E55A2"
           id="stop1106" /></linearGradient><path
         id="XMLID_85_"
         class="st5"
         d="m 134.48225,16.770822 c -0.42753,-0.342025 -0.59854,-0.855061 -0.59854,-1.624615 v -0.855061 c 0,-0.769554 0.17101,-1.368097 0.59854,-1.624615 0.42753,-0.342024 1.11158,-0.42753 2.05214,-0.42753 0.94057,0 1.71012,0.171012 2.05215,0.42753 0.42753,0.342024 0.59854,0.855061 0.59854,1.624615 v 0.769555 c 0,0.85506 -0.17101,1.368096 -0.59854,1.624615 -0.42753,0.256518 -1.11158,0.42753 -2.05215,0.42753 -1.02607,0.08551 -1.71012,-0.08551 -2.05214,-0.342024 z m 3.84777,24.967766 c -0.51304,0.513036 -1.11158,0.769554 -1.79563,0.769554 -0.76955,0 -1.36809,-0.256518 -1.79562,-0.769554 -0.51304,-0.513037 -0.68405,-1.111579 -0.68405,-1.795627 V 22.499727 c 0,-0.769555 0.25652,-1.368097 0.68405,-1.795627 0.51303,-0.513037 1.11158,-0.769555 1.79562,-0.769555 0.76956,0 1.3681,0.256518 1.79563,0.769555 0.51304,0.513036 0.68405,1.111578 0.68405,1.795627 v 17.443234 c 0.0855,0.684048 -0.17101,1.28259 -0.68405,1.795627 z"
         style="fill:url(#XMLID_20_);stroke-width:0.85506046"
         inkscape:connector-curvature="0" /><linearGradient
         id="XMLID_21_"
         gradientUnits="userSpaceOnUse"
         x1="172.03169"
         y1="-3.1459"
         x2="172.03169"
         y2="48.295601"
         gradientTransform="matrix(0.85506048,0,0,0.85506048,25.535996,6.6811079)"><stop
           offset="0"
           style="stop-color:#E91C37"
           id="stop1110" /><stop
           offset="5.948329e-002"
           style="stop-color:#DF2945"
           id="stop1112" /><stop
           offset="0.1861"
           style="stop-color:#CB3A5D"
           id="stop1114" /><stop
           offset="0.316"
           style="stop-color:#BA4571"
           id="stop1116" /><stop
           offset="0.4471"
           style="stop-color:#AB4C82"
           id="stop1118" /><stop
           offset="0.5796"
           style="stop-color:#9F508F"
           id="stop1120" /><stop
           offset="0.7144"
           style="stop-color:#965399"
           id="stop1122" /><stop
           offset="0.8528"
           style="stop-color:#90559F"
           id="stop1124" /><stop
           offset="1"
           style="stop-color:#8E55A2"
           id="stop1126" /></linearGradient><path
         id="XMLID_83_"
         class="st6"
         d="m 174.48753,16.599809 c -0.42753,0.513037 -0.59855,1.111579 -0.59855,1.795627 v 1.96664 h 3.84778 c 0.68405,0 1.19708,0.256518 1.71012,0.684048 0.42753,0.42753 0.68405,1.026073 0.68405,1.624615 0,0.684048 -0.25652,1.197085 -0.68405,1.624615 -0.42753,0.42753 -1.02607,0.684048 -1.71012,0.684048 h -3.84778 v 14.963559 c 0,0.769554 -0.25651,1.368096 -0.68404,1.795627 -0.51304,0.513036 -1.11158,0.769554 -1.79563,0.769554 -0.76956,0 -1.3681,-0.256518 -1.79563,-0.769554 -0.51303,-0.513037 -0.68405,-1.111579 -0.68405,-1.795627 V 24.979402 h -2.30866 c -0.68405,0 -1.19708,-0.256518 -1.71012,-0.684048 -0.42753,-0.42753 -0.68405,-1.026073 -0.68405,-1.624615 0,-0.684049 0.25652,-1.197085 0.68405,-1.624615 0.42753,-0.42753 1.02607,-0.684048 1.71012,-0.684048 h 2.30866 v -1.96664 c 0,-2.137651 0.68405,-3.847772 2.13766,-5.130362 1.4536,-1.282591 3.50574,-1.96664 6.24194,-1.96664 1.02607,0 1.96664,0.171013 2.73619,0.598543 0.76955,0.42753 1.19708,1.026072 1.19708,1.966639 0,0.684048 -0.17101,1.197085 -0.59854,1.624615 -0.42753,0.42753 -0.85506,0.598542 -1.4536,0.598542 -0.17101,0 -0.25652,0 -0.42753,0 -0.17101,0 -0.34202,-0.08551 -0.51304,-0.08551 -0.68405,-0.171012 -1.19708,-0.256518 -1.71012,-0.256518 -1.02607,0 -1.71012,0.342024 -2.05214,0.85506 z"
         style="fill:url(#XMLID_21_);stroke-width:0.85506046"
         inkscape:connector-curvature="0" /><linearGradient
         id="XMLID_22_"
         gradientUnits="userSpaceOnUse"
         x1="193.2036"
         y1="-3.1459"
         x2="193.2036"
         y2="48.295601"
         gradientTransform="translate(55.047861,49.912799)"><stop
           offset="0"
           style="stop-color:#E91C37"
           id="stop1130" /><stop
           offset="5.948329e-002"
           style="stop-color:#DF2945"
           id="stop1132" /><stop
           offset="0.1861"
           style="stop-color:#CB3A5D"
           id="stop1134" /><stop
           offset="0.316"
           style="stop-color:#BA4571"
           id="stop1136" /><stop
           offset="0.4471"
           style="stop-color:#AB4C82"
           id="stop1138" /><stop
           offset="0.5796"
           style="stop-color:#9F508F"
           id="stop1140" /><stop
           offset="0.7144"
           style="stop-color:#965399"
           id="stop1142" /><stop
           offset="0.8528"
           style="stop-color:#90559F"
           id="stop1144" /><stop
           offset="1"
           style="stop-color:#8E55A2"
           id="stop1146" /></linearGradient><path
         id="XMLID_90_-3"
         class="st3"
         d="m 201.25796,37.292273 c -1.02607,1.795627 -2.39417,3.163724 -4.1898,4.189796 -1.79562,1.026073 -3.67676,1.453603 -5.81441,1.453603 -2.13765,0 -4.10429,-0.513036 -5.81441,-1.453603 -1.71012,-0.940566 -3.07822,-2.394169 -4.10429,-4.189796 -1.02607,-1.795627 -1.53911,-3.762266 -1.53911,-6.07093 0,-2.223157 0.51304,-4.275302 1.53911,-6.070929 1.02607,-1.795627 2.39417,-3.163724 4.10429,-4.189796 1.71012,-1.026073 3.67676,-1.453603 5.81441,-1.453603 2.13765,0 4.01879,0.513036 5.81441,1.453603 1.79563,1.026072 3.16373,2.394169 4.1898,4.189796 1.02607,1.795627 1.53911,3.762266 1.53911,6.070929 0,2.308664 -0.51304,4.275303 -1.53911,6.07093 z m -4.36081,-9.74769 c -0.59854,-1.111578 -1.3681,-1.881133 -2.30866,-2.479675 -0.94057,-0.598542 -2.05215,-0.85506 -3.24923,-0.85506 -1.19709,0 -2.22316,0.256518 -3.24923,0.85506 -1.02608,0.598542 -1.71012,1.453603 -2.30867,2.479675 -0.59854,1.111579 -0.85506,2.308664 -0.85506,3.67676 0,1.368097 0.25652,2.565182 0.85506,3.676761 0.59855,1.026072 1.3681,1.881133 2.30867,2.479675 0.94056,0.598542 2.05214,0.85506 3.24923,0.85506 1.19708,0 2.22315,-0.256518 3.24923,-0.85506 0.94056,-0.598542 1.71012,-1.453603 2.30866,-2.479675 0.59854,-1.026073 0.85506,-2.308664 0.85506,-3.676761 0,-1.368096 -0.25652,-2.565181 -0.85506,-3.67676 z"
         style="fill:url(#XMLID_18_-7);stroke-width:0.85506046"
         inkscape:connector-curvature="0" /><path
         inkscape:connector-curvature="0"
         id="XMLID_93_-0"
         style="fill:url(#linearGradient4912-6);stroke-width:0.85506046"
         d="m 154.73983,19.411204 c -1.4536,0 -2.73586,0.428198 -3.93295,1.112246 -1.19708,0.684049 -2.13798,1.539109 -2.90754,2.565182 v -0.684716 c 0,-0.684049 -0.17167,-1.282257 -0.68471,-1.795293 -0.42753,-0.513036 -1.02574,-0.769889 -1.79529,-0.769889 -0.68405,0 -1.28226,0.256853 -1.79531,0.769889 -0.42753,0.42753 -0.68471,1.025738 -0.68471,1.795293 v 17.443568 c 0,0.684048 0.17168,1.282256 0.68471,1.795292 0.42754,0.513037 1.02575,0.769889 1.79531,0.769889 0.68404,0 1.28225,-0.256852 1.79529,-0.769889 0.42753,-0.42753 0.68471,-1.025738 0.68471,-1.795292 V 29.074055 c 0,-1.453603 0.51271,-2.65169 1.36777,-3.592256 0.85506,-0.940567 2.13832,-1.452934 3.67742,-1.452934 1.53911,0 2.56452,0.512702 3.16306,1.367762 0.59854,0.940567 0.94023,2.138319 0.94023,3.677428 v 10.773429 c 0,0.684048 0.17168,1.282256 0.68472,1.795292 0.42753,0.513037 1.02574,0.769889 1.79529,0.769889 0.68405,0 1.28226,-0.256852 1.7953,-0.769889 0.42753,-0.42753 0.68471,-1.025738 0.68471,-1.795292 V 29.074055 c 0,-0.02017 0.003,-0.03843 0.003,-0.05845 -0.0122,-0.06611 -0.009,-0.144825 0.007,-0.230465 -0.003,-0.04058 -0.006,-0.08112 -0.005,-0.121914 v -0.131932 -0.131933 c 0,-0.0439 0,-0.08637 0,-0.130264 -1e-5,-0.04388 10e-6,-0.08805 0,-0.131933 -1e-5,-0.04385 2e-5,-0.08809 0,-0.131933 -1e-5,-0.04375 5e-5,-0.08818 0,-0.131934 -4e-5,-0.04356 10e-5,-0.08671 0,-0.130262 -1e-4,-0.04309 2.3e-4,-0.08551 0,-0.128594 -2.1e-4,-0.03866 -8.5e-4,-0.07811 -0.002,-0.116903 0,0 0,-0.0017 0,-0.0017 -3.7e-4,-0.0026 3.6e-4,-0.0056 0,-0.0084 -0.003,-0.02478 -0.007,-0.05044 -0.009,-0.07515 -0.003,-0.02966 -0.006,-0.05873 -0.007,-0.08851 -2e-5,-0.02178 5e-5,-0.04335 0,-0.06513 -3e-5,-0.01381 -2e-5,-0.0278 0,-0.04175 -0.005,-0.01824 -0.0102,-0.03639 -0.0117,-0.05511 -0.005,-0.03067 -0.007,-0.06096 -0.01,-0.09185 -0.004,-0.03445 -0.0114,-0.06876 -0.0133,-0.103542 -8.5e-4,-0.01 -6.5e-4,-0.02006 -0.002,-0.03006 -1.5e-4,-0.0016 1.7e-4,-0.0033 0,-0.005 -0.003,-0.03344 -0.009,-0.06695 -0.0133,-0.100203 -0.004,-0.03981 -0.007,-0.07872 -0.01,-0.118573 -4.4e-4,-0.0039 -8.5e-4,-0.0078 -0.002,-0.01169 -0.007,-0.02588 -0.0165,-0.04908 -0.02,-0.08016 -8.5e-4,-0.0079 -0.003,-0.01718 -0.003,-0.02505 -0.005,-0.03287 -0.0112,-0.0653 -0.0133,-0.09853 -0.003,-0.02093 -0.006,-0.04109 -0.01,-0.0618 -0.005,-0.03655 -0.009,-0.07357 -0.0133,-0.110222 -0.003,-0.0319 -0.005,-0.06324 -0.007,-0.09519 -8.6e-4,-0.01661 -0.003,-0.03364 -0.005,-0.0501 -0.005,-0.03285 -0.009,-0.06534 -0.0117,-0.09853 -8.5e-4,-0.01132 -0.002,-0.02237 -0.005,-0.0334 -0.0108,-0.04774 -0.0185,-0.0966 -0.0233,-0.145293 -0.002,-0.01719 -0.004,-0.03474 -0.007,-0.05177 -0.005,-0.03398 -0.01,-0.06756 -0.0117,-0.101873 -0.002,-0.01404 -0.002,-0.02799 -0.005,-0.04175 -0.008,-0.03942 -0.0134,-0.07872 -0.0184,-0.118573 -0.003,-0.02856 -0.004,-0.05825 -0.007,-0.08684 -7.4e-4,-0.0074 -0.002,-0.0144 -0.003,-0.02171 -0.006,-0.02522 -0.0115,-0.04972 -0.0167,-0.07515 -0.005,-0.02168 -0.0103,-0.045 -0.0151,-0.06681 -0.006,-0.02015 -0.01,-0.03951 -0.0151,-0.05845 -0.0129,-0.0422 -0.0249,-0.08467 -0.0301,-0.128593 -0.003,-0.0262 -0.0155,-0.05194 -0.0167,-0.07849 -0.005,-0.02907 -0.0106,-0.05742 -0.0133,-0.08684 -0.003,-0.02581 -0.0137,-0.05091 -0.0167,-0.07682 -0.004,-0.02904 -0.0122,-0.05753 -0.0151,-0.08684 -0.004,-0.03107 -0.0124,-0.06052 -0.015,-0.09185 -0.002,-0.01294 -0.003,-0.02581 -0.007,-0.03841 -0.0101,-0.04307 -0.018,-0.0866 -0.0251,-0.130262 -0.002,-0.01634 -0.004,-0.03247 -0.009,-0.04843 -0.004,-0.0193 -0.008,-0.03962 -0.0133,-0.05845 -0.0173,-0.06865 -5.8e-4,-0.0044 -0.0133,-0.04676 -0.0108,-0.03412 -0.021,-0.06889 -0.0301,-0.103543 -8.6e-4,-0.004 -0.019,-0.06934 -0.01,-0.04843 -0.0114,-0.03696 -0.0249,-0.07408 -0.0334,-0.111894 0.005,0.0098 -0.0277,-0.07419 -0.0184,-0.05511 -0.0108,-0.03888 -0.0228,-0.07679 -0.0284,-0.116903 -0.002,-0.02266 -0.0145,-0.04388 -0.0151,-0.06681 -0.004,-0.02165 -0.0131,-0.04712 -0.0151,-0.06681 0.01,0.02699 -0.0269,-0.07114 -0.0167,-0.04843 -0.008,-0.0274 -0.016,-0.05432 -0.0233,-0.08183 -0.008,-0.02892 -0.014,-0.05837 -0.0233,-0.08684 -0.002,-0.0068 -0.003,-0.01337 -0.005,-0.02004 -1.02403,-2.775554 -3.25899,-4.19001 -6.59132,-4.19001 z m 12.68896,1.67171 c -0.003,0.0023 -0.006,0.0044 -0.009,0.0067 0.003,-0.0021 0.009,-0.0073 0.009,-0.0067 z m -4.22353,4.973379 c 0.005,0.008 8.6e-4,0.0056 -0.003,0.005 0.002,5.16e-4 0.002,-0.007 0.003,-0.005 z" /></g></g></svg>